# Blender v2.74 (sub 5) OBJ File: 'dome1_col.blend'
# www.blender.org
mtllib dome1_col.mtl
o Cube
v -1.028849 0.100000 -0.253727
v -0.111159 0.291504 0.533999
v -0.676619 0.532074 -0.180562
v -1.340319 0.100000 -0.562629
v -0.189955 0.100000 0.912533
v -0.067389 0.291504 0.323733
v 0.577263 0.100000 -1.175220
v 0.024962 0.100000 0.771674
v 0.533999 0.291504 0.111159
v 0.323733 0.291504 0.067389
v -0.323733 0.291504 -0.067389
v 0.111159 0.291504 -0.533999
v 0.607125 0.100000 -1.108472
v 0.737598 0.100000 0.500653
v 0.067389 0.291504 -0.323733
v 0.132349 0.799662 0.027550
v -0.027550 0.763635 0.132349
v 0.596739 0.100000 0.285735
v 0.027550 0.639271 -0.132349
v -0.132349 0.639271 -0.027550
vt 0.813462 0.740425
vt 0.000000 0.000000
vt 1.000000 0.000000
vt 1.000000 0.818731
vt 0.000000 0.666876
vt 0.000000 1.000000
vt 1.000000 1.000000
vt 0.000000 0.818731
vt 0.949538 0.772444
vt 0.775788 0.598256
vt 1.000000 0.666876
vt 0.908248 0.499694
vn -0.628200 -0.467500 0.621900
vn -0.004800 0.941900 0.335700
vn -0.297400 0.943900 0.143100
vn -0.934400 -0.181500 -0.306400
vn -0.185200 -0.168200 0.968200
vn 0.136600 0.962200 0.235700
vn 0.045000 0.998800 -0.016200
vn 0.515400 -0.102600 -0.850700
vn 0.522700 -0.076700 0.849000
vn 0.714200 0.656100 -0.243700
vn 0.290900 0.955300 0.052900
vn 0.295700 0.955100 -0.014200
vn 0.953300 -0.129400 -0.272700
vn 0.851100 -0.165800 0.498000
vn 0.204500 0.965000 -0.164000
vn 0.506300 0.862400 0.001900
vn -0.238700 0.815600 0.527100
vn -0.774200 0.589700 -0.229700
vn 0.644200 -0.659100 -0.388000
vn 0.069600 0.595100 -0.800600
usemtl Material
s 1
f 1/1/1 2/2/2 3/3/3 4/4/4
f 5/5/5 2/2/2 1/1/1
f 2/6/2 6/2/6 11/3/7 3/7/3
f 4/8/4 3/2/3 7/9/8
f 8/10/9 9/2/10 2/3/2 5/11/5
f 10/2/11 6/3/6 2/7/2 9/6/10
f 7/9/8 3/2/3 12/3/12 13/11/13
f 14/5/14 9/2/10 8/10/9
f 15/2/15 10/3/11 9/7/10 12/6/12
f 10/3/11 16/7/16 17/6/17 6/2/6
f 6/3/6 17/7/17 20/6/18 11/2/7
f 3/6/3 11/2/7 15/3/15 12/7/12
f 13/5/13 12/2/12 18/12/19
f 18/12/19 12/2/12 9/3/10 14/11/14
f 15/3/15 19/7/20 16/6/16 10/2/11
f 15/2/15 11/3/7 20/7/18 19/6/20
f 17/6/17 16/2/16 19/3/20 20/7/18
f 8/2/9 5/2/5 1/2/1 4/2/4 7/2/8 13/2/13 18/2/19 14/2/14
