# Blender v2.74 (sub 5) OBJ File: 'plane1_col.blend'
# www.blender.org
mtllib plane1_col.mtl
o Cube.003_Cube.004
v -0.156708 -0.022535 0.068804
v -0.156708 0.022535 0.068804
v -0.156708 -0.022535 -0.288872
v -0.156708 0.022535 -0.288872
v -0.498373 -0.024708 -0.127770
v -0.498373 -0.024708 -0.263077
vn -0.395000 -0.586200 -0.707300
vn -0.521300 -0.614200 0.592500
vn -0.558600 0.571500 0.601100
vn -0.417500 0.553200 -0.720800
vn 0.955700 0.068800 -0.286000
vn 0.863400 0.062100 0.500600
usemtl None
s 1
f 2//1 4//2 3//3 1//4
f 5//5 6//6 4//2 2//1
f 1//4 3//3 6//6 5//5
f 5//5 2//1 1//4
f 4//2 6//6 3//3
o Cube.002_Cube.003
v 0.156708 -0.022535 0.068804
v 0.156708 0.022535 0.068804
v 0.156708 -0.022535 -0.288872
v 0.156708 0.022535 -0.288872
v 0.498373 -0.024708 -0.127770
v 0.498373 -0.024708 -0.263077
vn -0.395000 0.586200 0.707300
vn -0.521300 0.614200 -0.592500
vn -0.558600 -0.571500 -0.601100
vn -0.417500 -0.553200 0.720800
vn 0.955700 -0.068800 0.286000
vn 0.863400 -0.062100 -0.500600
usemtl None
s 1
f 8//7 10//8 9//9 7//10
f 11//11 12//12 10//8 8//7
f 7//10 9//9 12//12 11//11
f 11//11 8//7 7//10
f 10//8 12//12 9//9
o Cube.001_Cube.002
v -0.156414 -0.036300 0.344011
v -0.156414 0.036300 0.344011
v -0.156414 -0.051696 -0.288625
v -0.156414 0.081603 -0.288625
v 0.156414 -0.036300 0.344011
v 0.156414 0.036300 0.344011
v 0.156414 -0.051696 -0.288625
v 0.156414 0.081603 -0.288625
vn -0.581200 0.554500 0.595600
vn -0.573700 0.599500 -0.558100
vn -0.576100 -0.584900 -0.570900
vn -0.578600 -0.569600 0.583700
vn 0.573700 0.599500 -0.558100
vn 0.576100 -0.584900 -0.570900
vn 0.581200 0.554500 0.595600
vn 0.578600 -0.569600 0.583700
usemtl None
s 1
f 14//13 16//14 15//15 13//16
f 16//14 20//17 19//18 15//15
f 20//17 18//19 17//20 19//18
f 18//19 14//13 13//16 17//20
f 13//16 15//15 19//18 17//20
f 18//19 20//17 16//14 14//13
