# Blender v2.74 (sub 5) OBJ File: 'plane1_v3.blend'
# www.blender.org
mtllib plane1_v3.mtl
o Cube_Cube.001
v -0.014999 0.030881 0.250055
v -0.033707 -0.047920 -0.288940
v -0.060680 -0.020947 -0.288938
v -0.060680 0.020947 -0.288938
v -0.033707 0.047920 -0.288940
v -0.156519 -0.020947 0.067801
v -0.129546 -0.047920 0.067801
v -0.129546 0.047920 0.067801
v -0.156519 0.020947 0.067801
v -0.129546 -0.047920 -0.288937
v -0.156519 -0.020947 -0.288937
v -0.156519 0.020947 -0.288937
v -0.129546 0.047920 -0.288937
v -0.087653 -0.047920 0.067801
v -0.060680 -0.020947 0.067899
v -0.060680 0.020947 0.067899
v -0.087653 0.047920 0.067801
v -0.087653 -0.047920 -0.288937
v -0.087653 0.047920 -0.288937
v -0.108599 0.000000 0.192713
v -0.033707 -0.047920 0.067996
v -0.033707 0.047920 0.067996
v -0.497852 -0.024960 -0.260129
v -0.497852 -0.024960 -0.128265
v -0.012724 0.071008 -0.023670
v -0.129546 0.047920 -0.158472
v -0.156519 0.020947 -0.158472
v -0.129546 -0.047920 -0.158472
v -0.156519 -0.020947 -0.158472
v -0.087653 0.047920 -0.158472
v -0.087653 -0.047920 -0.158472
v -0.060680 0.020947 -0.158436
v -0.033707 -0.047920 -0.158401
v -0.060680 -0.020947 -0.158436
v -0.497852 -0.024960 -0.228878
v -0.108599 0.076740 -0.223956
v -0.108599 0.076740 -0.288937
v -0.020091 0.000000 0.342287
v -0.033707 0.047920 -0.158401
v -0.015923 0.032071 0.237024
v -0.030242 0.047859 0.068006
v -0.016515 0.061628 0.088743
v -0.011194 0.068365 -0.013362
v 0.000000 0.047920 -0.288940
v 0.000000 -0.047920 -0.288940
v 0.000000 0.000000 0.342287
v 0.014999 0.030881 0.250055
v 0.033707 -0.047920 -0.288940
v 0.060680 -0.020947 -0.288938
v 0.060680 0.020947 -0.288938
v 0.033707 0.047920 -0.288940
v 0.156519 -0.020947 0.067801
v 0.129546 -0.047920 0.067801
v 0.129546 0.047920 0.067801
v 0.156519 0.020947 0.067801
v 0.129546 -0.047920 -0.288937
v 0.156519 -0.020947 -0.288937
v 0.156519 0.020947 -0.288937
v 0.129546 0.047920 -0.288937
v 0.087653 -0.047920 0.067801
v 0.060680 -0.020947 0.067899
v 0.060680 0.020947 0.067899
v 0.087653 0.047920 0.067801
v 0.087653 -0.047920 -0.288937
v 0.087653 0.047920 -0.288937
v 0.108599 0.000000 0.192713
v 0.033707 -0.047920 0.067996
v 0.033707 0.047920 0.067996
v 0.000000 -0.047920 0.067996
v 0.000000 0.047920 0.067996
v 0.497852 -0.024960 -0.260129
v 0.497852 -0.024960 -0.128265
v 0.012724 0.071008 -0.023670
v 0.129546 0.047920 -0.158472
v 0.156519 0.020947 -0.158472
v 0.129546 -0.047920 -0.158472
v 0.156519 -0.020947 -0.158472
v 0.087653 0.047920 -0.158472
v 0.087653 -0.047920 -0.158472
v 0.060680 0.020947 -0.158436
v 0.033707 -0.047920 -0.158401
v 0.000000 -0.047920 -0.158401
v 0.000000 0.047920 -0.158401
v 0.060680 -0.020947 -0.158436
v 0.497852 -0.024960 -0.228878
v 0.108599 0.076740 -0.223956
v 0.108599 0.076740 -0.288937
v 0.000000 0.030881 0.250055
v 0.020091 0.000000 0.342287
v 0.033707 0.047920 -0.158401
v 0.000000 0.071008 -0.023670
v 0.015923 0.032071 0.237024
v 0.030242 0.047859 0.068006
v 0.016515 0.061628 0.088743
v 0.011194 0.068365 -0.013362
v 0.000000 0.032071 0.237024
v 0.000000 0.068365 -0.013362
v 0.000000 0.061628 0.088777
vt 0.534319 0.146917
vt 0.534319 0.009177
vt 0.569886 0.009177
vt 0.569886 0.146917
vt 0.891250 0.627684
vt 0.897822 0.490101
vt 0.933348 0.491798
vt 0.926777 0.629381
vt 0.009177 0.827600
vt 0.037638 0.799139
vt 0.073205 0.799139
vt 0.073205 0.900265
vt 0.037638 0.900265
vt 0.009177 0.871804
vt 0.409615 0.146842
vt 0.409615 0.009180
vt 0.453819 0.009180
vt 0.453819 0.146842
vt 0.457037 0.643119
vt 0.457037 0.404363
vt 0.497287 0.404261
vt 0.497287 0.643082
vt 0.866014 0.490101
vt 0.866014 0.784258
vt 0.825908 0.493502
vt 0.412833 0.643119
vt 0.412833 0.780782
vt 0.372583 0.780782
vt 0.372583 0.643119
vt 0.409615 0.385598
vt 0.369365 0.385598
vt 0.369365 0.146842
vt 0.009177 0.750383
vt 0.009177 0.717410
vt 0.807627 0.699684
vt 0.782698 0.502823
vt 0.909000 0.302985
vt 0.894632 0.009177
vt 0.930199 0.009177
vt 0.930199 0.302985
vt 0.537537 0.643044
vt 0.537537 0.780784
vt 0.497287 0.780783
vt 0.627250 0.574593
vt 0.687427 0.574608
vt 0.657321 0.643666
vt 0.726386 0.673754
vt 0.687373 0.712645
vt 0.588241 0.673719
vt 0.588271 0.613542
vt 0.627234 0.712629
vt 0.726386 0.613577
vt 0.534319 0.385803
vt 0.494069 0.385701
vt 0.494069 0.146880
vt 0.494069 0.009179
vt 0.803612 0.110303
vt 0.775151 0.081842
vt 0.775151 0.037638
vt 0.803612 0.009177
vt 0.847816 0.009178
vt 0.876277 0.037638
vt 0.876277 0.081842
vt 0.847816 0.110303
vt 0.009177 0.178715
vt 0.009178 0.072552
vt 0.852050 0.471746
vt 0.693336 0.009177
vt 0.369365 0.009180
vt 0.009177 0.039578
vt 0.453819 0.385598
vt 0.537537 0.404158
vt 0.372583 0.404363
vt 0.009177 0.611246
vt 0.412833 0.404363
vt 0.457037 0.780781
vt 0.569886 0.385803
vt 0.663428 0.731000
vt 0.663428 0.868662
vt 0.625834 0.868662
vt 0.625834 0.800096
vt 0.588241 0.868662
vt 0.588241 0.731000
vt 0.434935 0.718611
vt 0.744741 0.059740
vt 0.930199 0.405615
vt 0.914373 0.405615
vt 0.897780 0.772396
vt 0.884369 0.771755
vt 0.984121 0.009177
vt 0.984121 0.202119
vt 0.948554 0.202119
vt 0.968294 0.009177
vt 0.984121 0.301863
vt 0.970694 0.301863
vt 0.933348 0.868177
vt 0.744741 0.516214
vt 0.973373 0.649402
vt 0.951703 0.669987
vt 0.961729 0.491406
vt 0.990823 0.758051
vt 0.978866 0.758051
vt 0.990823 0.648714
vt 0.978437 0.490101
vn 0.000000 -1.000000 0.000000
vn 0.000000 1.000000 0.000000
vn -0.000000 0.000000 -1.000000
vn 0.707100 0.707100 -0.000000
vn -0.698700 -0.698100 0.156600
vn -0.707100 0.707100 -0.000000
vn -0.707100 -0.707100 0.000000
vn -0.133300 0.991100 -0.000000
vn -0.776000 0.609800 0.161300
vn -0.000000 -0.985100 0.172100
vn -0.989200 -0.000000 0.146300
vn -0.933700 0.000000 0.358200
vn 0.658100 -0.659400 0.363300
vn -0.000000 0.933700 0.358200
vn 0.658100 0.659400 0.363300
vn -0.658800 -0.658800 0.363200
vn -0.658800 0.658800 0.363200
vn 0.933600 0.000000 0.358400
vn 0.000000 -0.933700 0.358200
vn 0.707100 -0.707100 0.000000
vn 0.011800 -0.999900 0.000000
vn -0.084100 -0.000000 -0.996500
vn -0.498100 0.000000 0.867100
vn 0.808900 0.587900 -0.000000
vn -0.808900 0.587900 0.000000
vn 0.000000 0.915300 0.402800
vn -0.000000 0.948300 0.317500
vn -0.000000 0.985600 -0.168900
vn -0.000000 0.995600 0.093200
vn -0.000000 0.969700 0.244200
vn -0.740000 0.672600 -0.000000
vn -0.700600 0.700100 0.137500
vn -0.789300 0.601600 0.123100
vn -0.000100 0.997800 0.065800
vn -0.714800 0.699300 0.008900
vn -0.000200 0.980700 0.195500
vn 0.698700 -0.698100 0.156600
vn 0.133300 0.991100 -0.000000
vn 0.776000 0.609800 0.161300
vn 0.989200 0.000000 0.146300
vn 0.933700 0.000000 0.358200
vn -0.658100 -0.659400 0.363300
vn -0.658100 0.659400 0.363300
vn 0.658800 -0.658800 0.363200
vn 0.658800 0.658800 0.363200
vn -0.933600 0.000000 0.358400
vn -0.011800 -0.999900 0.000000
vn 0.084100 -0.000000 -0.996500
vn 0.498100 0.000000 0.867100
vn 0.740000 0.672600 -0.000000
vn 0.700600 0.700100 0.137500
vn 0.789300 0.601600 0.123100
vn 0.000100 0.997800 0.065800
vn 0.714800 0.699300 0.008900
vn 0.000200 0.980700 0.195500
usemtl Material
s off
f 33/1/1 2/2/1 45/3/1 82/4/1
f 83/5/2 44/6/2 5/7/2 39/8/2
f 4/9/3 5/10/3 44/11/3 45/12/3 2/13/3 3/14/3
f 28/15/1 10/16/1 18/17/1 31/18/1
f 30/19/4 17/20/4 16/21/4 32/22/4
f 21/23/5 38/24/5 15/25/5
f 26/26/6 13/27/6 12/28/6 27/29/6
f 28/15/7 7/30/7 6/31/7 29/32/7
f 27/29/8 12/28/8 23/33/8 35/34/8
f 38/24/9 1/35/9 16/36/9
f 38/37/10 21/38/10 69/39/10 46/40/10
f 39/41/6 5/42/6 4/43/6 32/22/6
f 38/24/11 16/36/11 15/25/11
f 9/44/12 6/45/12 20/46/12
f 14/47/13 15/48/13 20/46/13
f 17/49/14 8/50/14 20/46/14
f 16/51/15 17/49/15 20/46/15
f 6/45/16 7/52/16 20/46/16
f 8/50/17 9/44/17 20/46/17
f 15/48/18 16/51/18 20/46/18
f 7/52/19 14/47/19 20/46/19
f 33/1/7 21/53/7 15/54/7 34/55/7
f 31/18/20 18/17/20 3/56/20 34/55/20
f 12/57/3 13/58/3 19/59/3 4/60/3 3/61/3 18/62/3 10/63/3 11/64/3
f 29/32/21 6/31/21 24/65/21 35/66/21
f 12/57/22 11/64/22 23/67/22
f 6/45/23 9/44/23 24/68/23
f 11/69/21 29/32/21 35/66/21 23/70/21
f 14/71/20 31/18/20 34/55/20 15/54/20
f 2/2/7 33/1/7 34/55/7 3/56/7
f 22/72/6 39/41/6 32/22/6 16/21/6
f 9/73/8 27/29/8 35/34/8 24/74/8
f 10/16/7 28/15/7 29/32/7 11/69/7
f 8/75/6 26/26/6 27/29/6 9/73/6
f 19/76/4 30/19/4 32/22/4 4/43/4
f 17/20/2 30/19/2 26/26/2 8/75/2
f 7/30/1 28/15/1 31/18/1 14/71/1
f 21/53/1 33/1/1 82/4/1 69/77/1
f 30/78/24 19/79/24 37/80/24 36/81/24
f 13/82/25 26/83/25 36/81/25 37/80/25
f 26/26/26 30/19/26 36/84/26
f 19/59/3 13/58/3 37/85/3
f 88/86/27 1/87/27 38/37/27 46/40/27
f 25/88/28 91/89/28 83/5/28 39/8/28
f 88/90/29 70/91/29 22/92/29 1/93/29
f 70/91/30 91/94/30 25/95/30 22/92/30
f 22/96/31 25/88/31 39/8/31
f 1/35/32 22/97/32 16/36/32
f 42/98/33 41/99/33 40/100/33
f 97/101/34 43/102/34 42/98/34 98/103/34
f 41/99/35 42/98/35 43/102/35
f 96/104/36 98/103/36 42/98/36 40/100/36
f 81/1/1 82/4/1 45/3/1 48/2/1
f 83/5/2 90/8/2 51/7/2 44/6/2
f 50/9/3 49/14/3 48/13/3 45/12/3 44/11/3 51/10/3
f 76/15/1 79/18/1 64/17/1 56/16/1
f 78/19/6 80/22/6 62/21/6 63/20/6
f 67/23/37 61/25/37 89/24/37
f 74/26/4 75/29/4 58/28/4 59/27/4
f 76/15/20 77/32/20 52/31/20 53/30/20
f 75/29/38 85/34/38 71/33/38 58/28/38
f 89/24/39 62/36/39 47/35/39
f 89/37/10 46/40/10 69/39/10 67/38/10
f 90/41/4 80/22/4 50/43/4 51/42/4
f 89/24/40 61/25/40 62/36/40
f 55/44/41 66/46/41 52/45/41
f 60/47/42 66/46/42 61/48/42
f 63/49/14 66/46/14 54/50/14
f 62/51/43 66/46/43 63/49/43
f 52/45/44 66/46/44 53/52/44
f 54/50/45 66/46/45 55/44/45
f 61/48/46 66/46/46 62/51/46
f 53/52/19 66/46/19 60/47/19
f 81/1/20 84/55/20 61/54/20 67/53/20
f 79/18/7 84/55/7 49/56/7 64/17/7
f 58/57/3 57/64/3 56/63/3 64/62/3 49/61/3 50/60/3 65/59/3 59/58/3
f 77/32/47 85/66/47 72/65/47 52/31/47
f 58/57/48 71/67/48 57/64/48
f 52/45/49 72/68/49 55/44/49
f 57/69/47 71/70/47 85/66/47 77/32/47
f 60/71/7 61/54/7 84/55/7 79/18/7
f 48/2/20 49/56/20 84/55/20 81/1/20
f 68/72/4 62/21/4 80/22/4 90/41/4
f 55/73/38 72/74/38 85/34/38 75/29/38
f 56/16/20 57/69/20 77/32/20 76/15/20
f 54/75/4 55/73/4 75/29/4 74/26/4
f 65/76/6 50/43/6 80/22/6 78/19/6
f 63/20/2 54/75/2 74/26/2 78/19/2
f 53/30/1 60/71/1 79/18/1 76/15/1
f 67/53/1 69/77/1 82/4/1 81/1/1
f 78/78/25 86/81/25 87/80/25 65/79/25
f 59/82/24 87/80/24 86/81/24 74/83/24
f 74/26/26 86/84/26 78/19/26
f 65/59/3 87/85/3 59/58/3
f 88/86/27 46/40/27 89/37/27 47/87/27
f 73/88/28 90/8/28 83/5/28 91/89/28
f 88/90/29 47/93/29 68/92/29 70/91/29
f 70/91/30 68/92/30 73/95/30 91/94/30
f 68/96/50 90/8/50 73/88/50
f 47/35/51 62/36/51 68/97/51
f 94/98/52 92/100/52 93/99/52
f 97/101/53 98/103/53 94/98/53 95/102/53
f 93/99/54 95/102/54 94/98/54
f 96/104/55 92/100/55 94/98/55 98/103/55
