# Blender v2.74 (sub 5) OBJ File: 'scraper.blend'
# www.blender.org
mtllib scraper.mtl
o Cube
v 0.997183 0.000000 -0.997183
v 0.997183 0.000000 0.997183
v -0.997184 0.000000 0.997183
v -0.997183 0.000000 -0.997184
v 0.367883 7.977471 -0.367883
v 0.367883 7.977471 0.367884
v -0.367883 7.977471 0.367883
v -0.367883 7.977471 -0.367883
v 0.997184 7.977471 -0.997183
v 0.997183 7.977471 0.997184
v -0.997183 7.977471 -0.997183
v -0.997184 7.977471 0.997183
v 0.109265 8.522045 -0.109265
v 0.109265 8.522045 0.109266
v -0.109266 8.522045 -0.109265
v -0.109266 8.522045 0.109266
vt 0.000000 0.000000
vt 1.000000 0.000000
vt 1.000000 1.000000
vt 0.000000 1.000000
vn 0.000000 -1.000000 0.000000
vn -0.000000 0.429000 0.903300
vn 1.000000 0.000000 0.000000
vn -0.000000 -0.000000 1.000000
vn -1.000000 -0.000000 -0.000000
vn 0.000000 0.000000 -1.000000
vn 0.000000 1.000000 -0.000000
vn 0.903300 0.429000 0.000000
vn -0.903300 0.429000 0.000000
vn 0.000000 0.429000 -0.903300
usemtl Material
s off
f 1/1/1 2/2/1 3/3/1 4/4/1
f 7/1/2 6/2/2 14/3/2 16/4/2
f 1/1/3 9/2/3 10/3/3 2/4/3
f 2/1/4 10/2/4 12/3/4 3/4/4
f 3/1/5 12/2/5 11/3/5 4/4/5
f 9/1/6 1/2/6 4/3/6 11/4/6
f 5/1/7 6/2/7 10/3/7 9/4/7
f 8/1/7 5/2/7 9/3/7 11/4/7
f 6/1/7 7/2/7 12/3/7 10/4/7
f 7/1/7 8/2/7 11/3/7 12/4/7
f 13/1/7 15/2/7 16/3/7 14/4/7
f 6/1/8 5/2/8 13/3/8 14/4/8
f 8/1/9 7/2/9 16/3/9 15/4/9
f 5/1/10 8/2/10 15/3/10 13/4/10
