# Blender v2.74 (sub 5) OBJ File: 'scraper_col.blend'
# www.blender.org
mtllib scraper_col.mtl
o Cube
v 0.997183 0.100000 -0.997183
v 0.997183 0.100000 0.997183
v -0.997184 0.100000 0.997183
v -0.997183 0.100000 -0.997184
v 0.367883 7.977471 -0.367883
v 0.367883 7.977471 0.367884
v -0.367883 7.977471 0.367883
v -0.367883 7.977471 -0.367883
v 0.997184 7.977471 -0.997183
v 0.997183 7.977471 0.997184
v -0.997183 7.977471 -0.997183
v -0.997184 7.977471 0.997183
v 0.109265 8.522045 -0.109265
v 0.109265 8.522045 0.109266
v -0.109266 8.522045 -0.109265
v -0.109266 8.522045 0.109266
vt 0.000000 0.000000
vt 1.000000 0.000000
vt 1.000000 1.000000
vt 0.000000 1.000000
vn 0.577300 -0.577300 -0.577300
vn 0.577300 -0.577300 0.577300
vn -0.577300 -0.577300 0.577300
vn -0.577300 -0.577300 -0.577300
vn -0.178400 0.967700 0.178400
vn 0.178400 0.967700 0.178400
vn 0.432400 0.791200 0.432400
vn -0.432400 0.791200 0.432400
vn 0.577300 0.577300 -0.577300
vn 0.577300 0.577300 0.577300
vn -0.577300 0.577300 0.577300
vn -0.577300 0.577300 -0.577300
vn 0.178400 0.967700 -0.178400
vn -0.178400 0.967700 -0.178400
vn 0.432400 0.791200 -0.432400
vn -0.432400 0.791200 -0.432400
usemtl Material
s 1
f 1/1/1 2/2/2 3/3/3 4/4/4
f 7/1/5 6/2/6 14/3/7 16/4/8
f 1/1/1 9/2/9 10/3/10 2/4/2
f 2/1/2 10/2/10 12/3/11 3/4/3
f 3/1/3 12/2/11 11/3/12 4/4/4
f 9/1/9 1/2/1 4/3/4 11/4/12
f 5/1/13 6/2/6 10/3/10 9/4/9
f 8/1/14 5/2/13 9/3/9 11/4/12
f 6/1/6 7/2/5 12/3/11 10/4/10
f 7/1/5 8/2/14 11/3/12 12/4/11
f 13/1/15 15/2/16 16/3/8 14/4/7
f 6/1/6 5/2/13 13/3/15 14/4/7
f 8/1/14 7/2/5 16/3/8 15/4/16
f 5/1/13 8/2/14 15/3/16 13/4/15
