# Blender v2.74 (sub 5) OBJ File: 'scraper1.blend'
# www.blender.org
mtllib scraper1.mtl
o Cube
v 0.500000 0.000000 -0.500000
v 0.500000 0.000000 0.500000
v -0.500000 0.000000 0.500000
v -0.500000 0.000000 -0.500000
v 0.184461 0.591415 -0.184461
v 0.184461 0.591415 0.184461
v -0.184461 0.591415 0.184461
v -0.184461 0.591415 -0.184461
v 0.318962 0.106125 -0.318961
v 0.318961 0.106125 0.318962
v -0.318961 0.106125 -0.318961
v -0.318962 0.106125 0.318961
v 0.054787 0.864471 -0.054787
v 0.054787 0.864471 0.054787
v -0.054787 0.864471 -0.054787
v -0.054787 0.864471 0.054787
vt 0.000000 0.000000
vt 1.000000 0.000000
vt 1.000000 1.000000
vt 0.000000 1.000000
vn 0.000000 -1.000000 0.000000
vn -0.000000 0.429000 0.903300
vn 0.505700 0.862700 0.000000
vn -0.000000 0.862700 0.505700
vn -0.505700 0.862700 -0.000000
vn 0.000000 0.862700 -0.505700
vn 0.963700 0.267100 0.000000
vn 0.000000 0.267100 -0.963700
vn -0.000000 0.267100 0.963700
vn -0.963700 0.267100 -0.000000
vn 0.000000 1.000000 -0.000000
vn 0.903300 0.429000 0.000000
vn -0.903300 0.429000 -0.000000
vn 0.000000 0.429000 -0.903300
usemtl Material
s off
f 1/1/1 2/2/1 3/3/1 4/4/1
f 7/1/2 6/2/2 14/3/2 16/4/2
f 1/1/3 9/2/3 10/3/3 2/4/3
f 2/1/4 10/2/4 12/3/4 3/4/4
f 3/1/5 12/2/5 11/3/5 4/4/5
f 9/1/6 1/2/6 4/3/6 11/4/6
f 5/1/7 6/2/7 10/3/7 9/4/7
f 8/1/8 5/2/8 9/3/8 11/4/8
f 6/1/9 7/2/9 12/3/9 10/4/9
f 7/1/10 8/2/10 11/3/10 12/4/10
f 13/1/11 15/2/11 16/3/11 14/4/11
f 6/1/12 5/2/12 13/3/12 14/4/12
f 8/1/13 7/2/13 16/3/13 15/4/13
f 5/1/14 8/2/14 15/3/14 13/4/14
