# Blender v2.74 (sub 5) OBJ File: 'scraper1_col.blend'
# www.blender.org
mtllib scraper1_col.mtl
o Cube
v -0.369592 1.184976 0.369591
v 0.369591 1.184976 0.369592
v 0.109773 1.732079 0.109773
v -0.109773 1.732079 0.109773
v -0.369591 1.184976 -0.369591
v -0.109773 1.732079 -0.109773
v -0.639080 0.212636 0.639080
v 0.639079 0.212636 0.639080
v 0.369591 1.184976 -0.369591
v 0.109773 1.732079 -0.109773
v -0.639080 0.212636 -0.639080
v 0.639080 0.212636 -0.639079
v 0.831224 0.100000 0.831224
v -0.831224 0.100000 0.831224
v -0.831224 0.100000 -0.831224
v 0.831224 0.100000 -0.831224
vt 0.000000 0.000000
vt 1.000000 0.000000
vt 1.000000 1.000000
vt 0.000000 1.000000
vt 0.470288 0.000000
vt 0.470288 1.000000
vt 0.529712 0.000000
vt 0.529712 1.000000
vn -0.633400 0.444700 0.633400
vn 0.633400 0.444700 0.633400
vn 0.432400 0.791200 0.432400
vn -0.432400 0.791200 0.432400
vn -0.633400 0.444700 -0.633400
vn -0.432400 0.791200 -0.432400
vn -0.419400 0.805000 0.419400
vn 0.419400 0.805000 0.419400
vn 0.633400 0.444700 -0.633400
vn 0.432400 0.791200 -0.432400
vn -0.419400 0.805000 -0.419400
vn 0.419400 0.805000 -0.419400
vn 0.699800 -0.142900 0.699800
vn -0.699800 -0.142900 0.699800
vn -0.699800 -0.142900 -0.699800
vn 0.699800 -0.142900 -0.699800
usemtl Material
s 1
f 1/1/1 2/2/2 3/3/3 4/4/4
f 5/1/5 1/2/1 4/3/4 6/4/6
f 2/1/2 1/2/1 7/3/7 8/4/8
f 2/1/2 9/2/9 10/3/10 3/4/3
f 10/1/10 6/2/6 4/3/4 3/4/3
f 9/1/9 5/2/5 6/3/6 10/4/10
f 1/1/1 5/2/5 11/3/11 7/4/7
f 9/1/9 2/2/2 8/3/8 12/4/12
f 13/5/13 8/2/8 7/3/7 14/6/14
f 5/1/5 9/2/9 12/3/12 11/4/11
f 14/5/14 7/2/7 11/3/11 15/6/15
f 16/5/16 12/2/12 8/3/8 13/6/13
f 12/1/12 16/7/16 15/8/15 11/4/11
f 16/1/16 13/1/13 14/1/14 15/1/15
