# Blender v2.74 (sub 5) OBJ File: 'scraper1_col.blend'
# www.blender.org
mtllib scraper1_col.mtl
o Cube
v 0.184461 0.591415 -0.184461
v 0.184461 0.591415 0.184461
v -0.184461 0.591415 0.184461
v -0.184461 0.591415 -0.184461
v 0.318962 0.106125 -0.318961
v 0.318961 0.106125 0.318962
v -0.318961 0.106125 -0.318961
v -0.318962 0.106125 0.318961
v 0.054787 0.864471 -0.054787
v 0.054787 0.864471 0.054787
v -0.054787 0.864471 -0.054787
v -0.054787 0.864471 0.054787
vt 0.000000 0.000000
vt 1.000000 0.000000
vt 1.000000 1.000000
vt 0.000000 1.000000
vn -0.633400 0.444700 0.633400
vn 0.633400 0.444700 0.633400
vn 0.432400 0.791200 0.432400
vn -0.432400 0.791200 0.432400
vn 0.633400 0.444700 -0.633400
vn 0.658300 0.364900 0.658300
vn 0.658300 0.364900 -0.658300
vn -0.633400 0.444700 -0.633400
vn -0.658300 0.364900 -0.658300
vn -0.658300 0.364900 0.658300
vn 0.432400 0.791200 -0.432400
vn -0.432400 0.791200 -0.432400
usemtl Material
s 1
f 3/1/1 2/2/2 10/3/3 12/4/4
f 1/1/5 2/2/2 6/3/6 5/4/7
f 4/1/8 1/2/5 5/3/7 7/4/9
f 2/1/2 3/2/1 8/3/10 6/4/6
f 3/1/1 4/2/8 7/3/9 8/4/10
f 9/1/11 11/2/12 12/3/4 10/4/3
f 2/1/2 1/2/5 9/3/11 10/4/3
f 4/1/8 3/2/1 12/3/4 11/4/12
f 1/1/5 4/2/8 11/3/12 9/4/11
