# Blender v2.74 (sub 5) OBJ File: 'turr2_col.blend'
# www.blender.org
mtllib turr2_col.mtl
o Cube.001
v 0.492399 -0.110213 -0.492398
v 0.492398 -0.110213 0.492399
v -0.492399 -0.110213 0.492398
v -0.492398 -0.110213 -0.492398
v 0.492399 -0.306477 -0.492398
v 0.492398 -0.306477 0.492399
v -0.492399 -0.306477 0.492398
v -0.492398 -0.306477 -0.492398
vt 0.000000 0.000000
vt 0.000000 1.000000
vt 1.000000 1.000000
vt 1.000000 0.000000
vn 0.577300 0.577300 -0.577300
vn -0.577300 0.577300 -0.577300
vn -0.577300 0.577300 0.577300
vn 0.577300 0.577300 0.577300
vn 0.577300 -0.577300 -0.577300
vn 0.577300 -0.577300 0.577300
vn -0.577300 -0.577300 0.577300
vn -0.577300 -0.577300 -0.577300
usemtl Material
s 1
f 1/1/1 4/2/2 3/3/3 2/4/4
f 5/1/5 6/4/6 7/3/7 8/2/8
f 1/1/1 2/4/4 6/4/6 5/1/5
f 3/3/3 4/2/2 8/2/8 7/3/7
f 2/4/4 3/3/3 7/3/7 6/4/6
f 4/2/2 1/1/1 5/1/5 8/2/8
o Cube
v 0.492399 0.097077 -0.492398
v 0.492398 0.097077 0.492399
v -0.492399 0.097077 0.492398
v -0.492398 0.097077 -0.492398
v -0.492398 0.146131 -0.492398
v -0.492399 0.146131 0.492398
v 0.492398 0.146131 0.492399
v 0.492399 0.146131 -0.492398
v 0.309019 0.148799 -0.309019
v 0.309019 0.148799 0.309019
v -0.309019 0.148799 0.309019
v -0.309019 0.148799 -0.309019
v 0.074027 0.418590 -0.074027
v 0.074027 0.418590 0.074027
v -0.074027 0.418590 0.074027
v -0.074027 0.418590 -0.074027
v 0.196419 0.418590 -0.196419
v 0.196418 0.418590 0.196419
v -0.196419 0.418590 -0.196419
v -0.196419 0.418590 0.196419
v 0.074027 0.563316 -0.074027
v 0.074027 0.563316 0.074027
v -0.074027 0.563316 0.074027
v -0.074027 0.563316 -0.074027
vt 0.000000 0.000000
vt 1.000000 0.000000
vt 1.000000 1.000000
vt 0.000000 1.000000
vn 0.578700 0.574500 -0.578700
vn 0.578700 0.574500 0.578700
vn 0.577300 -0.577300 0.577300
vn 0.577300 -0.577300 -0.577300
vn -0.195100 0.961100 0.195100
vn -0.195100 0.961100 -0.195100
vn -0.578700 0.574500 -0.578700
vn -0.578700 0.574500 0.578700
vn -0.577300 -0.577300 -0.577300
vn -0.577300 -0.577300 0.577300
vn 0.195100 0.961100 -0.195100
vn 0.195100 0.961100 0.195100
vn -0.450200 0.771100 0.450200
vn -0.450200 0.771100 -0.450200
vn 0.301500 0.904500 0.301500
vn 0.301500 0.904500 -0.301500
vn 0.577300 0.577300 -0.577300
vn 0.577300 0.577300 0.577300
vn 0.450200 0.771100 -0.450200
vn 0.450200 0.771100 0.450200
vn -0.301500 0.904500 -0.301500
vn -0.301500 0.904500 0.301500
vn -0.577300 0.577300 -0.577300
vn -0.577300 0.577300 0.577300
usemtl Material
s 1
f 16/5/9 15/6/10 10/7/11 9/8/12
f 19/5/13 20/6/14 13/7/15 14/8/16
f 14/5/16 13/6/15 12/7/17 11/8/18
f 9/5/12 10/6/11 11/7/18 12/8/17
f 17/5/19 18/6/20 15/7/10 16/8/9
f 15/5/10 14/6/16 11/7/18 10/8/11
f 20/5/14 19/6/13 28/7/21 27/8/22
f 20/5/14 17/6/19 16/7/9 13/8/15
f 13/5/15 16/6/9 9/7/12 12/8/17
f 18/5/20 19/6/13 14/7/16 15/8/10
f 22/5/23 21/6/24 29/7/25 30/8/26
f 17/5/19 20/6/14 27/7/22 25/8/27
f 19/5/13 18/6/20 26/7/28 28/8/21
f 18/5/20 17/6/19 25/7/27 26/8/28
f 21/5/24 22/6/23 26/7/28 25/8/27
f 24/5/29 21/6/24 25/7/27 27/8/22
f 22/5/23 23/6/30 28/7/21 26/8/28
f 23/5/30 24/6/29 27/7/22 28/8/21
f 29/5/25 32/6/31 31/7/32 30/8/26
f 24/5/29 23/6/30 31/7/32 32/8/31
f 21/5/24 24/6/29 32/7/31 29/8/25
f 23/5/30 22/6/23 30/7/26 31/8/32
