# Blender v2.74 (sub 5) OBJ File: 'turr1.blend'
# www.blender.org
mtllib turr1.mtl
o Cube
v 0.224414 0.000000 -0.224414
v 0.224414 0.000000 0.224414
v -0.224414 0.000000 0.224414
v -0.224414 0.000000 -0.224414
v 0.224414 0.384459 -0.224413
v 0.224413 0.384459 0.224414
v -0.224414 0.384459 0.224414
v -0.224414 0.384459 -0.224414
v 0.309019 0.663395 -0.309019
v 0.309019 0.663395 0.309019
v -0.309019 0.663395 0.309019
v -0.309019 0.663395 -0.309019
v 0.074027 0.933186 -0.074027
v 0.074027 0.933186 0.074027
v -0.074027 0.933186 0.074027
v -0.074027 0.933186 -0.074027
v 0.196419 0.933186 -0.196419
v 0.196418 0.933186 0.196419
v -0.196419 0.933186 -0.196419
v -0.196419 0.933186 0.196419
v 0.074027 1.077913 -0.074027
v 0.074027 1.077913 0.074027
v -0.074027 1.077913 0.074027
v -0.074027 1.077913 -0.074027
vt 0.000000 0.000000
vt 1.000000 0.000000
vt 1.000000 1.000000
vt 0.000000 1.000000
vn 0.000000 -1.000000 0.000000
vn -0.956900 -0.290300 -0.000000
vn 1.000000 0.000000 0.000000
vn -0.000000 -0.000000 1.000000
vn -1.000000 -0.000000 -0.000000
vn 0.000000 0.000000 -1.000000
vn -0.922800 0.385200 -0.000000
vn 0.000000 -0.290300 -0.956900
vn -0.000000 -0.290300 0.956900
vn 0.956900 -0.290300 0.000000
vn 0.000000 0.385200 -0.922800
vn -0.000000 0.385200 0.922800
vn 0.922800 0.385200 0.000000
vn 0.000000 1.000000 0.000000
usemtl Material
s off
f 1/1/1 2/2/1 3/3/1 4/4/1
f 8/1/2 7/2/2 11/3/2 12/4/2
f 1/1/3 5/2/3 6/3/3 2/4/3
f 2/1/4 6/2/4 7/3/4 3/4/4
f 3/1/5 7/2/5 8/3/5 4/4/5
f 5/1/6 1/2/6 4/3/6 8/4/6
f 12/1/7 11/2/7 20/3/7 19/4/7
f 5/1/8 8/2/8 12/3/8 9/4/8
f 7/1/9 6/2/9 10/3/9 11/4/9
f 6/1/10 5/2/10 9/3/10 10/4/10
f 14/1/3 13/2/3 21/3/3 22/4/3
f 9/1/11 12/2/11 19/3/11 17/4/11
f 11/1/12 10/2/12 18/3/12 20/4/12
f 10/1/13 9/2/13 17/3/13 18/4/13
f 13/1/14 14/2/14 18/3/14 17/4/14
f 16/1/14 13/2/14 17/3/14 19/4/14
f 14/1/14 15/2/14 20/3/14 18/4/14
f 15/1/14 16/2/14 19/3/14 20/4/14
f 21/1/14 24/2/14 23/3/14 22/4/14
f 16/1/5 15/2/5 23/3/5 24/4/5
f 13/1/6 16/2/6 24/3/6 21/4/6
f 15/1/4 14/2/4 22/3/4 23/4/4
